<svg width="93" height="16" viewBox="0 0 93 16" fill="none" xmlns="http://www.w3.org/2000/svg">
<path d="M3.324 13.164H6.124L7.678 6.808L9.218 13.164H12.214L14.552 3.154H11.892L10.534 9.454L9.078 3.154H6.53L5.186 9.398L3.898 3.154H1L3.324 13.164Z" fill="black"/>
<path d="M17.7713 13.164H20.6693V3.154H17.7713V13.164Z" fill="black"/>
<path d="M24.6372 13.164H31.3012V10.938H27.5212V3.154H24.6372V13.164Z" fill="black"/>
<path d="M37.5739 10.952V5.366H38.2039C39.9399 5.366 40.6959 6.178 40.6959 8.082V8.194C40.6959 10.056 39.9399 10.952 38.2319 10.952H37.5739ZM34.6899 13.164H38.3159C41.8439 13.164 43.6919 11.274 43.6919 8.152V8.04C43.6919 4.932 41.8859 3.154 38.3299 3.154H34.6899V13.164Z" fill="black"/>
<path d="M51.7982 13.332C54.3882 13.332 56.2642 11.988 56.4602 9.398H53.6042C53.4642 10.504 52.7502 11.036 51.7422 11.036C50.3702 11.036 49.6002 10.014 49.6002 8.208V8.096C49.6002 6.276 50.4122 5.268 51.7002 5.268C52.7082 5.268 53.2682 5.828 53.3802 6.85H56.3342C56.0962 4.204 54.2902 3 51.6862 3C48.7602 3 46.5762 5.03 46.5762 8.11V8.222C46.5762 11.288 48.2982 13.332 51.7982 13.332Z" fill="black"/>
<path d="M58.7282 13.164H61.4022L61.9342 11.302H65.2522L65.7842 13.164H68.8222L65.6442 3.154H61.9342L58.7282 13.164ZM63.6002 5.478L64.6922 9.328H62.4942L63.6002 5.478Z" fill="black"/>
<path d="M71.9712 13.164H74.8272V9.58H75.4992L77.5292 13.164H80.5532L78.1592 9.02C79.2092 8.614 79.9652 7.816 79.9652 6.388V6.332C79.9652 4.218 78.5092 3.154 75.8912 3.154H71.9712V13.164ZM74.8272 7.718V5.31H75.7652C76.6892 5.31 77.1932 5.632 77.1932 6.444V6.5C77.1932 7.312 76.7172 7.718 75.7512 7.718H74.8272Z" fill="black"/>
<path d="M86.6169 10.952V5.366H87.2469C88.9829 5.366 89.7389 6.178 89.7389 8.082V8.194C89.7389 10.056 88.9829 10.952 87.2749 10.952H86.6169ZM83.7329 13.164H87.3589C90.8869 13.164 92.7349 11.274 92.7349 8.152V8.04C92.7349 4.932 90.9289 3.154 87.3729 3.154H83.7329V13.164Z" fill="black"/>
</svg>
